<svg width="400" height="256" viewBox="0 0 400 256" fill="none" xmlns="http://www.w3.org/2000/svg">
  <!-- Background Elements -->
  <circle cx="200" cy="128" r="100" fill="#ABE6C4" opacity="0.08"/>

  <!-- Growth Arrow -->
  <path d="M80 180 L120 140 L160 160 L200 100 L240 120 L280 60 L320 80" stroke="#ABE6C4" stroke-width="4" fill="none" stroke-linecap="round" stroke-linejoin="round"/>

  <!-- Arrow Head -->
  <path d="M320 80 L310 70 L320 60" stroke="#ABE6C4" stroke-width="4" fill="none" stroke-linecap="round" stroke-linejoin="round"/>

  <!-- Milestone Markers -->
  <circle cx="120" cy="140" r="8" fill="#7CC9A9"/>
  <circle cx="200" cy="100" r="8" fill="#7CC9A9"/>
  <circle cx="280" cy="60" r="8" fill="#ABE6C4"/>

  <!-- Base Line -->
  <line x1="60" y1="200" x2="340" y2="200" stroke="#ABE6C4" stroke-width="2" opacity="0.3"/>

  <!-- Achievement Stars -->
  <path d="M350 40 L352 46 L358 46 L353 50 L355 56 L350 52 L345 56 L347 50 L342 46 L348 46 Z" fill="#ABE6C4" opacity="0.6"/>
  <path d="M50 100 L52 104 L56 104 L53 107 L54 111 L50 108 L46 111 L47 107 L44 104 L48 104 Z" fill="#7CC9A9" opacity="0.4"/>

  <!-- Decorative Dots -->
  <circle cx="100" cy="200" r="4" fill="#ABE6C4" opacity="0.4"/>
  <circle cx="180" cy="200" r="4" fill="#7CC9A9" opacity="0.4"/>
  <circle cx="260" cy="200" r="4" fill="#ABE6C4" opacity="0.4"/>
</svg>
