<svg width="1920" height="208" viewBox="0 0 1920 208" fill="none" xmlns="http://www.w3.org/2000/svg">
<path d="M-26 153.053C-26 50.367 38.1279 0.973522 190.485 0.973522C258.487 0.973522 332.944 12.672 388.464 26.5368L378.565 71.1643C328.64 60.3324 257.196 46.9008 187.042 46.9008C64.3816 46.9008 26.5074 81.1296 26.5074 153.053C26.5074 224.977 64.3816 259.639 187.042 259.639C239.55 259.639 294.209 250.974 334.235 243.175V148.721H388.464V280.003C332.944 293.868 258.487 305.567 190.485 305.567C38.1279 305.567 -26 256.173 -26 153.053Z" fill="#171717"/>
<path d="M424.271 202.014V83.7293H473.335V195.515C473.335 239.275 500.019 263.972 565.438 263.972C601.591 263.972 651.085 253.574 704.023 235.809V83.7293H753.087V300.801H710.479L706.175 269.605C660.123 289.102 604.603 306 549.944 306C470.752 306 424.271 276.537 424.271 202.014Z" fill="#171717"/>
<path d="M844.148 0V52.5334H795.084V0H844.148ZM795.084 300.801V83.7293H844.148V300.801H795.084Z" fill="#171717"/>
<path d="M1165.16 0H1214.22V300.801H1171.18L1166.88 264.839C1122.12 285.636 1067.03 305.133 1010.65 305.133C925.431 305.133 879.38 272.638 879.38 194.648C879.38 108.426 943.507 79.3965 1038.19 79.3965C1084.67 79.3965 1128.57 84.5958 1165.16 91.095V0ZM928.444 193.781C928.444 243.175 955.558 263.539 1017.96 263.539C1066.6 263.539 1116.52 250.107 1165.16 232.343V130.09C1127.28 124.891 1077.79 120.124 1034.75 120.124C968.04 120.124 928.444 139.622 928.444 193.781Z" fill="#171717"/>
<path d="M1429.15 266.139C1491.99 266.139 1544.93 256.607 1566.88 251.84L1577.21 289.102C1540.62 298.634 1480.37 306 1425.28 306C1307.35 306 1249.68 276.104 1249.68 192.048C1249.68 109.726 1312.09 78.53 1418.39 78.53C1516.09 78.53 1584.95 103.66 1584.95 180.783C1584.95 188.149 1584.09 200.281 1583.23 205.047H1297.89C1303.91 254.44 1343.94 266.139 1429.15 266.139ZM1416.67 113.625C1340.06 113.625 1303.05 129.223 1297.89 176.884H1536.75C1532.88 133.989 1504.9 113.625 1416.67 113.625Z" fill="#171717"/>
<path d="M1896.94 0H1946V300.801H1902.96L1898.66 264.839C1853.9 285.636 1798.81 305.133 1742.43 305.133C1657.21 305.133 1611.16 272.638 1611.16 194.648C1611.16 108.426 1675.29 79.3965 1769.97 79.3965C1816.45 79.3965 1860.35 84.5958 1896.94 91.095V0ZM1660.22 193.781C1660.22 243.175 1687.34 263.539 1749.74 263.539C1798.38 263.539 1848.3 250.107 1896.94 232.343V130.09C1859.06 124.891 1809.57 120.124 1766.53 120.124C1699.82 120.124 1660.22 139.622 1660.22 193.781Z" fill="#171717"/>
</svg>
