<svg width="206" height="32" viewBox="0 0 206 32" fill="none" xmlns="http://www.w3.org/2000/svg">
<path d="M0 16.0056C0 5.26714 6.69896 0.101806 22.6146 0.101806C29.7182 0.101806 37.4962 1.32517 43.296 2.77509L42.2619 7.44202C37.0466 6.30927 29.5833 4.90466 22.2549 4.90466C9.44148 4.90466 5.48505 8.48414 5.48505 16.0056C5.48505 23.527 9.44148 27.1518 22.2549 27.1518C27.74 27.1518 33.4498 26.2456 37.6311 25.4301V15.5525H43.296V29.2814C37.4962 30.7313 29.7182 31.9547 22.6146 31.9547C6.69896 31.9547 0 26.7894 0 16.0056Z" fill="white"/>
<path d="M47.0364 21.1256V8.756H52.1617V20.446C52.1617 25.0223 54.9492 27.6049 61.7831 27.6049C65.5597 27.6049 70.73 26.5175 76.26 24.6598V8.756H81.3854V31.4563H76.9344L76.4848 28.194C71.6741 30.2329 65.8744 32 60.1645 32C51.892 32 47.0364 28.9189 47.0364 21.1256Z" fill="white"/>
<path d="M90.8978 0V5.49369H85.7724V0H90.8978ZM85.7724 31.4563V8.756H90.8978V31.4563H85.7724Z" fill="white"/>
<path d="M124.431 0H129.557V31.4563H125.061L124.611 27.6956C119.935 29.8704 114.181 31.9094 108.291 31.9094C99.3889 31.9094 94.5782 28.5111 94.5782 20.3553C94.5782 11.3387 101.277 8.3029 111.168 8.3029C116.024 8.3029 120.61 8.84662 124.431 9.52627V0ZM99.7036 20.2647C99.7036 25.4301 102.536 27.5596 109.055 27.5596C114.136 27.5596 119.351 26.155 124.431 24.2973V13.6042C120.475 13.0604 115.304 12.562 110.809 12.562C103.84 12.562 99.7036 14.601 99.7036 20.2647Z" fill="white"/>
<path d="M152.009 27.8315C158.573 27.8315 164.103 26.8347 166.396 26.3363L167.475 30.2329C163.653 31.2297 157.359 32 151.604 32C139.285 32 133.261 28.8736 133.261 20.0835C133.261 11.4746 139.78 8.21228 150.885 8.21228C161.091 8.21228 168.284 10.8403 168.284 18.9054C168.284 19.6757 168.194 20.9444 168.104 21.4428H138.296C138.926 26.6081 143.107 27.8315 152.009 27.8315ZM150.705 11.8824C142.702 11.8824 138.836 13.5135 138.296 18.4976H163.249C162.844 14.012 159.922 11.8824 150.705 11.8824Z" fill="white"/>
<path d="M200.875 0H206V31.4563H201.504L201.054 27.6956C196.379 29.8704 190.624 31.9094 184.734 31.9094C175.832 31.9094 171.022 28.5111 171.022 20.3553C171.022 11.3387 177.721 8.3029 187.612 8.3029C192.467 8.3029 197.053 8.84662 200.875 9.52627V0ZM176.147 20.2647C176.147 25.4301 178.979 27.5596 185.498 27.5596C190.579 27.5596 195.794 26.155 200.875 24.2973V13.6042C196.918 13.0604 191.748 12.562 187.252 12.562C180.283 12.562 176.147 14.601 176.147 20.2647Z" fill="white"/>
</svg>
